<svg id="圖層_1" data-name="圖層 1" xmlns="http://www.w3.org/2000/svg" viewBox="0 0 44.77 33.85"><defs><style>.cls-1{fill:#1b7773;}.cls-2{font-size:15.73px;font-family:PinotGrigioModern-Medium, Pinot Grigio Modern;font-weight:500;}.cls-3{letter-spacing:-0.02em;}.cls-4{letter-spacing:0em;}</style></defs><path class="cls-1" d="M42.44,7.51a.64.64,0,0,1,.63.64V36.72a.64.64,0,0,1-.63.64H2.94a.64.64,0,0,1-.64-.64V8.15a.64.64,0,0,1,.64-.64h39.5m0-2H2.94A2.64,2.64,0,0,0,.3,8.15V36.72a2.64,2.64,0,0,0,2.64,2.64h39.5a2.64,2.64,0,0,0,2.63-2.64V8.15a2.64,2.64,0,0,0-2.63-2.64Z" transform="translate(-0.3 -5.51)"/><text class="cls-2" transform="translate(3.03 22.57) scale(0.88 1)">B<tspan class="cls-3" x="9.64" y="0">o</tspan><tspan class="cls-4" x="18.96" y="0">ard</tspan></text></svg>