<svg id="圖層_1" data-name="圖層 1" xmlns="http://www.w3.org/2000/svg" viewBox="0 0 36 36"><defs><style>.cls-1{opacity:0.8;}.cls-2{fill:#558d8f;}</style></defs><g class="cls-1"><rect class="cls-2" x="0.5" y="0.5" width="16.05" height="16.05" rx="0.68"/><path class="cls-2" d="M20.88,6a.18.18,0,0,1,.17.18v14.7a.18.18,0,0,1-.17.17H6.18A.18.18,0,0,1,6,20.88V6.18A.18.18,0,0,1,6.18,6h14.7m0-1H6.18A1.18,1.18,0,0,0,5,6.18v14.7a1.17,1.17,0,0,0,1.18,1.17h14.7a1.17,1.17,0,0,0,1.17-1.17V6.18A1.17,1.17,0,0,0,20.88,5Z" transform="translate(-5 -5)"/></g><g class="cls-1"><path class="cls-2" d="M5.81,40.5a.31.31,0,0,1-.31-.31V25.12a.67.67,0,0,1,.68-.67h14.7a.67.67,0,0,1,.67.67V40.19a.31.31,0,0,1-.3.31Z" transform="translate(-5 -5)"/><path class="cls-2" d="M20.88,25a.18.18,0,0,1,.17.17V40H6V25.12A.18.18,0,0,1,6.18,25h14.7m0-1H6.18A1.17,1.17,0,0,0,5,25.12V40.19a.81.81,0,0,0,.81.81H21.24a.81.81,0,0,0,.81-.81V25.12A1.17,1.17,0,0,0,20.88,24Z" transform="translate(-5 -5)"/></g><g class="cls-1"><rect class="cls-2" x="19.45" y="0.5" width="16.05" height="16.05" rx="0.68"/><path class="cls-2" d="M39.82,6a.18.18,0,0,1,.18.18v14.7a.18.18,0,0,1-.18.17H25.12a.18.18,0,0,1-.17-.17V6.18A.18.18,0,0,1,25.12,6h14.7m0-1H25.12A1.17,1.17,0,0,0,24,6.18v14.7a1.17,1.17,0,0,0,1.17,1.17h14.7A1.17,1.17,0,0,0,41,20.88V6.18A1.18,1.18,0,0,0,39.82,5Z" transform="translate(-5 -5)"/></g><g class="cls-1"><path class="cls-2" d="M24.75,40.5a.3.3,0,0,1-.3-.31V25.12a.67.67,0,0,1,.67-.67h14.7a.67.67,0,0,1,.68.67V40.19a.31.31,0,0,1-.31.31Z" transform="translate(-5 -5)"/><path class="cls-2" d="M39.82,25a.18.18,0,0,1,.18.17V40H25V25.12a.18.18,0,0,1,.17-.17h14.7m0-1H25.12A1.17,1.17,0,0,0,24,25.12V40.19a.81.81,0,0,0,.81.81H40.19a.81.81,0,0,0,.81-.81V25.12A1.17,1.17,0,0,0,39.82,24Z" transform="translate(-5 -5)"/></g></svg>