<svg id="圖層_1" data-name="圖層 1" xmlns="http://www.w3.org/2000/svg" viewBox="0 0 126.54 190.25"><defs><style>.cls-1{fill:#367773;}.cls-2{fill:#231815;}.cls-3{fill:#fae4c7;}.cls-4{fill:#ed1c24;stroke:#ed1c24;}.cls-4,.cls-5,.cls-6,.cls-7,.cls-8{stroke-miterlimit:10;stroke-width:2px;}.cls-5{fill:#d66338;stroke:#d66338;}.cls-6{fill:#fbb03b;stroke:#fbb03b;opacity:0.6;}.cls-7{fill:#f15a24;stroke:#f15a24;}.cls-8{fill:#ebbb42;stroke:#ebbb42;opacity:0.8;}</style></defs><path class="cls-1" d="M145.69,75.9c-3.23-.49-3.25.65-5,2.74a14.51,14.51,0,0,1-6.35,4.13,30.26,30.26,0,0,1-11.85,1.11,33.84,33.84,0,0,1-7.5-1.21c-2.2-.65-4.18-2.39-6.36-2.85-3.66-.79-9,2.63-12,4.26a60,60,0,0,0-20.66,18.14,53.38,53.38,0,0,0-9.57,35.59c.77,8,3.4,15.8,6.69,23.26a142.57,142.57,0,0,0,6.8,13.46c3.87,6.73,10.75,17,19.91,18.17,10.5,1.32,22.81-1.89,31.72-6.88" transform="translate(-65.53 -3.38)"/><path class="cls-2" d="M145.86,75.29a5.05,5.05,0,0,0-3.3.31,9,9,0,0,0-2.14,2.34c-2.67,3.24-6.74,4.75-10.81,5.24a39,39,0,0,1-12.88-.69A25.63,25.63,0,0,1,111,80.05a7.77,7.77,0,0,0-4.22-.94c-3.08.28-6,1.91-8.59,3.39A85.69,85.69,0,0,0,89,88.13,58.5,58.5,0,0,0,74,104.05a54.55,54.55,0,0,0-7.87,21,55.72,55.72,0,0,0,1.61,23.15,113.12,113.12,0,0,0,9.77,23.3c3,5.57,6.35,11.16,10.9,15.62a23.66,23.66,0,0,0,7.4,5.12,24.41,24.41,0,0,0,9.64,1.34,57.18,57.18,0,0,0,21.61-4.9q2.45-1.07,4.77-2.36c.71-.39.08-1.47-.63-1.08A57.46,57.46,0,0,1,110.6,192a42.27,42.27,0,0,1-10.72.09,17.05,17.05,0,0,1-8-3.51c-4.72-3.59-8.18-8.69-11.14-13.75A126.16,126.16,0,0,1,70.52,153a59.49,59.49,0,0,1-3.69-23,52.85,52.85,0,0,1,5.86-21.3A56.2,56.2,0,0,1,86.17,91.94a61.07,61.07,0,0,1,9.08-6.39,61.16,61.16,0,0,1,8.3-4.33,9.63,9.63,0,0,1,4.45-.87c1.87.21,3.46,1.45,5.11,2.25,3.32,1.6,7.33,1.85,11,2A27.07,27.07,0,0,0,135.43,83a15.67,15.67,0,0,0,4.09-2.39,21.16,21.16,0,0,0,2.81-3.1,3,3,0,0,1,3.2-1c.78.11,1.12-1.1.33-1.21Z" transform="translate(-65.53 -3.38)"/><path class="cls-1" d="M143.62,75.46a154.63,154.63,0,0,1,17.65,8.2c8,4.3,15.89,9.22,21.25,16.18,7.32,9.49,9.09,21.68,8.9,33.32a117.7,117.7,0,0,1-5.12,32.47c-1.64,5.39-3.76,10.82-7.73,15.05a34.29,34.29,0,0,1-11.11,7.43c-11.62,5.18-26.32,6.24-37-.48" transform="translate(-65.53 -3.38)"/><path class="cls-2" d="M143.45,76.07a152.81,152.81,0,0,1,17.88,8.34A82.67,82.67,0,0,1,176.07,94a38.89,38.89,0,0,1,10.16,13.13,50.41,50.41,0,0,1,4.23,16.59A107.93,107.93,0,0,1,187,160.85c-1.5,5.72-3.23,11.64-6.62,16.57S172,185.5,166.6,187.81c-11.16,4.8-25.12,5.91-35.79-.72-.68-.42-1.31.66-.63,1.08,9.69,6,22.06,5.84,32.62,2.39a40.41,40.41,0,0,0,15-8.27c4.3-4,6.78-9.41,8.57-14.92A114.06,114.06,0,0,0,192,128.26c-.43-11.65-3.47-23.37-11.72-32-4.62-4.81-10.29-8.48-16.07-11.72a157.69,157.69,0,0,0-20.43-9.7c-.75-.29-1.07.92-.33,1.21Z" transform="translate(-65.53 -3.38)"/><path class="cls-1" d="M103.47,192.6a11.44,11.44,0,0,0,5.27-.49l10.9-2.79c2.65-.67,5.31-1.35,7.91-2.22a54.07,54.07,0,0,0,23.66-15.53" transform="translate(-65.53 -3.38)"/><path class="cls-2" d="M103.3,193.21c2.25.41,4.38-.19,6.55-.74l7.58-1.94a103.29,103.29,0,0,0,13.8-4.13A54.62,54.62,0,0,0,151.65,172c.53-.6-.35-1.49-.88-.88A53.49,53.49,0,0,1,130.9,185.2a96,96,0,0,1-12.85,3.88l-7.11,1.82c-2.35.6-4.86,1.55-7.31,1.1-.78-.14-1.12,1.06-.33,1.21Z" transform="translate(-65.53 -3.38)"/><path class="cls-2" d="M99.25,171.89c15.87-2.87,31.69-9.71,48.08-6.86.79.14,1.12-1.07.33-1.2-16.66-2.9-32.62,3.94-48.75,6.85-.79.14-.45,1.35.34,1.21Z" transform="translate(-65.53 -3.38)"/><path class="cls-3" d="M146.43,163.83a24.48,24.48,0,0,1,4.86,9.29" transform="translate(-65.53 -3.38)"/><path class="cls-2" d="M146,164.28a24,24,0,0,1,4.7,9,.62.62,0,0,0,1.2-.33,25.23,25.23,0,0,0-5-9.57c-.52-.62-1.4.27-.88.89Z" transform="translate(-65.53 -3.38)"/><path class="cls-3" d="M147,163.82a16.72,16.72,0,0,1,10.18.72" transform="translate(-65.53 -3.38)"/><path class="cls-2" d="M147.16,164.43a16.23,16.23,0,0,1,9.86.71c.74.3,1.07-.91.33-1.21a17.44,17.44,0,0,0-10.52-.71c-.78.19-.45,1.4.33,1.21Z" transform="translate(-65.53 -3.38)"/><path class="cls-2" d="M92.28,131.08A47.6,47.6,0,0,1,97,152a.63.63,0,0,0,1.25,0,49,49,0,0,0-4.89-21.56c-.35-.72-1.42-.09-1.08.63Z" transform="translate(-65.53 -3.38)"/><path class="cls-2" d="M164.62,122.72c1.06,16.79.65,34.82-9.59,49-2.51,3.48-5.95,7.7-10.66,7.56a.63.63,0,0,0,0,1.25c3.86.12,7-2.41,9.39-5.2a46,46,0,0,0,6.81-10.62c3.7-8,5.27-16.7,5.64-25.43a158.14,158.14,0,0,0-.34-16.58c-.05-.8-1.3-.8-1.25,0Z" transform="translate(-65.53 -3.38)"/><path class="cls-2" d="M152.69,171.83a2,2,0,0,1,.4-.11l-.16,0a1.85,1.85,0,0,1,.47,0l-.17,0a1.88,1.88,0,0,1,.45.12l-.15-.06a1.75,1.75,0,0,1,.35.2l-.13-.09.08.06a.64.64,0,0,0,.89,0,.64.64,0,0,0,0-.88,2.24,2.24,0,0,0-1.11-.55,2.42,2.42,0,0,0-1.25.1.76.76,0,0,0-.37.29.62.62,0,0,0-.06.48.63.63,0,0,0,.28.38.62.62,0,0,0,.48.06Z" transform="translate(-65.53 -3.38)"/><path class="cls-2" d="M108.5,80.78a32.83,32.83,0,0,0,23.37,3.59c3.92-1,11.92-3.81,10.64-9.19-.19-.78-1.39-.45-1.21.33.58,2.42-1.77,4.17-3.59,5.24a23.54,23.54,0,0,1-7.48,2.69,31.83,31.83,0,0,1-21.1-3.74.63.63,0,0,0-.63,1.08Z" transform="translate(-65.53 -3.38)"/><path class="cls-3" d="M112.43,164.51a51.72,51.72,0,0,0-9.12-5.86,18.63,18.63,0,0,0-10.79-1.76c1.41,1.61,3.81,2.09,6,2.47a36.83,36.83,0,0,0-5.75.23,8.56,8.56,0,0,0,5.86,2.09c-.87.71-2.17.64-3.33.6s-2.52.06-3.16,1a14,14,0,0,0,5.27.16,37.62,37.62,0,0,0-3,2.32,4.14,4.14,0,0,0,3.46-.1,8.53,8.53,0,0,0-2,1.76,1.35,1.35,0,0,0-.36.7c-.07.83,1.2,1.12,2.1,1a10.46,10.46,0,0,0,7-4.09" transform="translate(-65.53 -3.38)"/><path class="cls-2" d="M112.75,164c-5.94-4.43-12.6-8.93-20.39-7.68a.63.63,0,0,0-.28,1c1.63,1.75,4,2.24,6.29,2.63l.16-1.23a39.46,39.46,0,0,0-5.75.24c-.48.05-.9.67-.44,1.06a9.41,9.41,0,0,0,6.3,2.27l-.32-1.16c-1.95,1.39-4.88-.42-6.61,1.65a.64.64,0,0,0,.28,1.05,15.73,15.73,0,0,0,5.6.16l-.48-1.14c-1.09.76-2.13,1.56-3.14,2.42-.4.33-.13.89.27,1.05a5,5,0,0,0,4-.17l-.64-1.08c-1,.63-2.81,1.84-2.67,3.19.11,1.17,1.52,1.5,2.48,1.45a10.82,10.82,0,0,0,7.72-4.43c.49-.64-.6-1.27-1.08-.63A9.7,9.7,0,0,1,99.25,168a5.25,5.25,0,0,1-2.53.39c-1.39-.27,1-2,1.47-2.27a.63.63,0,0,0-.64-1.08,3.72,3.72,0,0,1-3,0l.28,1c.93-.79,1.89-1.53,2.89-2.23a.63.63,0,0,0-.48-1.14,13.91,13.91,0,0,1-4.94-.17l.28,1.05c.77-.94,2.1-.79,3.19-.76a5,5,0,0,0,3.16-.7.63.63,0,0,0-.31-1.17,8.13,8.13,0,0,1-5.42-1.9l-.44,1.07a39.46,39.46,0,0,1,5.75-.24c.69,0,.87-1.11.17-1.23-2-.35-4.26-.72-5.73-2.3l-.28,1c7.4-1.18,13.83,3.38,19.43,7.56.64.48,1.27-.6.63-1.08Z" transform="translate(-65.53 -3.38)"/><path class="cls-2" d="M146.37,75.89l-4.18-1.3a.63.63,0,0,0-.77.43.65.65,0,0,0,.44.77l4.18,1.3a.63.63,0,0,0,.77-.43.65.65,0,0,0-.44-.77Z" transform="translate(-65.53 -3.38)"/><path class="cls-2" d="M78.89,173.44a.63.63,0,0,0,0-1.25.63.63,0,0,0,0,1.25Z" transform="translate(-65.53 -3.38)"/><path class="cls-2" d="M145.27,75.33a3.34,3.34,0,0,0-3.32-.19,2.94,2.94,0,0,0-1.59,2.73.64.64,0,0,0,.63.62.62.62,0,0,0,.62-.62c0-.11,0-.21,0-.31s0-.12,0,0a.94.94,0,0,1,0-.16,2.76,2.76,0,0,1,.08-.27c0,.12,0,0,0,0a.54.54,0,0,1,.07-.13l.07-.12s.12-.15,0-.06l.2-.21a.69.69,0,0,1,.13-.11c-.07,0,0,0,0,0l.28-.17s.16-.06.09,0l.09,0,.32-.08h0l.18,0h.3l.18,0c-.09,0,0,0,0,0l.32.08.14.06c.07,0,0,0,.05,0a2.38,2.38,0,0,1,.3.18.64.64,0,0,0,.86-.23.64.64,0,0,0-.23-.85Z" transform="translate(-65.53 -3.38)"/><path class="cls-3" d="M157.46,164.89a85.53,85.53,0,0,0-10.36-1.18,53.24,53.24,0,0,1,3,7.92,5.28,5.28,0,0,1,4.62,0" transform="translate(-65.53 -3.38)"/><path class="cls-2" d="M157.62,164.29a88.45,88.45,0,0,0-10.52-1.21.63.63,0,0,0-.54.94,52.67,52.67,0,0,1,2.89,7.78.63.63,0,0,0,.92.37,4.67,4.67,0,0,1,4,0c.72.34,1.36-.74.63-1.08a6,6,0,0,0-5.26,0l.92.37a55.58,55.58,0,0,0-3-8.07l-.54.94a87.06,87.06,0,0,1,10.19,1.16c.79.14,1.13-1.06.33-1.2Z" transform="translate(-65.53 -3.38)"/><path class="cls-2" d="M97.5,37.92A41.3,41.3,0,0,0,100.81,57c2.47,5.72,6.32,11.37,11.59,14.85,4.89,3.22,11.71,4.25,16.69.62a19.71,19.71,0,0,0,5.6-7.21,44.23,44.23,0,0,0,3.49-9.33,45.73,45.73,0,0,0,0-22.3.63.63,0,0,0-1.21.33,44.28,44.28,0,0,1,.64,18.72c-1.05,5.79-3.17,12.25-7.09,16.76-4.25,4.91-11.09,5.06-16.48,2-5.16-3-8.93-8.24-11.46-13.51a40.06,40.06,0,0,1-3.83-19.95c.06-.81-1.19-.8-1.25,0Z" transform="translate(-65.53 -3.38)"/><path class="cls-2" d="M114.64,73.17a22.57,22.57,0,0,0,1.81,10.42.62.62,0,0,0,.85.23.65.65,0,0,0,.23-.86,21.19,21.19,0,0,1-1.64-9.79c0-.8-1.2-.8-1.25,0Z" transform="translate(-65.53 -3.38)"/><path class="cls-2" d="M132.2,68.86a49.42,49.42,0,0,1,3,12.85c.08.8,1.33.81,1.25,0a50.86,50.86,0,0,0-3.09-13.19c-.28-.74-1.49-.42-1.2.34Z" transform="translate(-65.53 -3.38)"/><path class="cls-2" d="M116.89,52.71l0,2.16c0,.68-.05,1.39,0,2.07.07,1,.83,2.46,2,1.81.71-.38.08-1.46-.63-1.08.06,0,0,0,0,0a.15.15,0,0,1,.13,0h0c.06,0,.06,0,0,0s0-.05,0,0l-.07-.1a1.22,1.22,0,0,1-.08-.17,3.1,3.1,0,0,1-.11-1.23l0-3.45a.63.63,0,0,0-1.25,0Z" transform="translate(-65.53 -3.38)"/><path class="cls-2" d="M104.92,45.7a8.74,8.74,0,0,1,6.83-1.64.65.65,0,0,0,.77-.44.62.62,0,0,0-.44-.76,10.08,10.08,0,0,0-8,2,.62.62,0,0,0,0,.88.63.63,0,0,0,.88,0Z" transform="translate(-65.53 -3.38)"/><path class="cls-2" d="M126.34,42a6.9,6.9,0,0,1,6.72.27.63.63,0,0,0,.63-1.08,8.16,8.16,0,0,0-8-.27c-.72.37-.09,1.44.63,1.08Z" transform="translate(-65.53 -3.38)"/><path class="cls-2" d="M109.57,47.87V47.5a.42.42,0,0,0,0-.24.44.44,0,0,0-.13-.2.46.46,0,0,0-.2-.13.39.39,0,0,0-.24,0l-.17,0a.63.63,0,0,0-.27.16l-.1.13a.66.66,0,0,0-.09.31v.37a.54.54,0,0,0,.06.25.49.49,0,0,0,.13.2.46.46,0,0,0,.2.13.6.6,0,0,0,.24,0l.17,0a.74.74,0,0,0,.27-.16l.1-.13a.59.59,0,0,0,.08-.32Z" transform="translate(-65.53 -3.38)"/><path class="cls-2" d="M127.92,45.9a.63.63,0,0,0,0-1.25.63.63,0,0,0,0,1.25Z" transform="translate(-65.53 -3.38)"/><path class="cls-2" d="M120.63,67.85c2.44,1,4.94-.65,6.81-2.07a.66.66,0,0,0,.23-.86.63.63,0,0,0-.86-.22c-1.6,1.22-3.74,2.78-5.85,2a.63.63,0,0,0-.77.43.65.65,0,0,0,.44.77Z" transform="translate(-65.53 -3.38)"/><path class="cls-2" d="M107.1,25.2a27.83,27.83,0,0,1-8.3,17.73c-.57.57.31,1.45.89.89a29.19,29.19,0,0,0,8.66-18.62c.06-.8-1.19-.8-1.25,0Z" transform="translate(-65.53 -3.38)"/><path class="cls-2" d="M123.89,23.9A23.51,23.51,0,0,0,129,31.72a23.55,23.55,0,0,0,3.59,2.93,14.34,14.34,0,0,1,3.81,3.07c.47.64,1.55,0,1.07-.63a12.22,12.22,0,0,0-3.33-2.91,27.29,27.29,0,0,1-3.79-2.89,21.88,21.88,0,0,1-5.26-7.72c-.3-.74-1.51-.42-1.21.33Z" transform="translate(-65.53 -3.38)"/><path class="cls-2" d="M97.32,45.83c-3.84-6-6.48-13.11-5.48-20.28.88-6.31,4.55-12.21,10.5-14.84a36.83,36.83,0,0,1,11.07-2.57,26.57,26.57,0,0,1,10.31.76,24.26,24.26,0,0,1,15.62,33c-.31.74.9,1.07,1.21.33a26.12,26.12,0,0,0-.24-20.45,25.77,25.77,0,0,0-24.5-15,43.47,43.47,0,0,0-11.92,2.07,19.55,19.55,0,0,0-12.76,14C89,31,91.77,39.52,96.24,46.46c.43.67,1.51,0,1.08-.63Z" transform="translate(-65.53 -3.38)"/><path class="cls-2" d="M97.48,45.94a2,2,0,0,0-1.81-.54A.81.81,0,0,0,95,46a6.79,6.79,0,0,0-.18.78A7.79,7.79,0,0,0,99.18,55c.33.14.85.07.92-.37l.21-1.37a.65.65,0,0,0-.44-.77.62.62,0,0,0-.77.44l-.21,1.37.92-.38a6.54,6.54,0,0,1-3.61-7.7l-.43.44a.73.73,0,0,1,.83.16c.58.56,1.46-.33.88-.89Z" transform="translate(-65.53 -3.38)"/><path class="cls-2" d="M138.68,43.08c.9,1,1.84-.16,2.66-.57s.92,1.33.88,1.85c-.17,2.16-.59,4.86-2.66,6a.62.62,0,0,0,.63,1.07c2.45-1.39,3.05-4.4,3.27-7,.09-1.09,0-2.63-1.17-3.18a1.8,1.8,0,0,0-1.77.25c-.25.16-.48.35-.73.51l-.27.15s.21.17,0,0c-.55-.59-1.43.29-.89.88Z" transform="translate(-65.53 -3.38)"/><path class="cls-2" d="M110.33,26.94a11.52,11.52,0,0,0,8.51,6.93c.79.14,1.13-1.07.34-1.2a10.25,10.25,0,0,1-7.64-6.07.64.64,0,0,0-.77-.43.62.62,0,0,0-.44.77Z" transform="translate(-65.53 -3.38)"/><path class="cls-2" d="M119.21,28.69A11.24,11.24,0,0,0,127.54,32c.81,0,.81-1.28,0-1.25a10,10,0,0,1-7.45-2.95.63.63,0,0,0-.88.89Z" transform="translate(-65.53 -3.38)"/><path class="cls-2" d="M98,16.44a21.19,21.19,0,0,0-1.63,16.3c.24.77,1.45.44,1.21-.33a19.9,19.9,0,0,1,1.5-15.34c.39-.71-.69-1.34-1.08-.63Z" transform="translate(-65.53 -3.38)"/><path class="cls-2" d="M101.36,18.07l-.76,7.63a.63.63,0,1,0,1.25,0l.76-7.63a.62.62,0,0,0-.62-.62.64.64,0,0,0-.63.62Z" transform="translate(-65.53 -3.38)"/><path class="cls-2" d="M123.37,3.83A9.08,9.08,0,0,0,123.1,8a.64.64,0,0,0,.77.44l3.51-1.13a.63.63,0,0,0,.43-.77.64.64,0,0,0-.77-.44l-3.5,1.13.77.44a6.5,6.5,0,0,1-.08-.83c0-.31,0-.61,0-.92a7.78,7.78,0,0,1,.33-1.72.62.62,0,0,0-.43-.77.63.63,0,0,0-.77.43Z" transform="translate(-65.53 -3.38)"/><path class="cls-2" d="M128.28,16.06c.47-.52,2.21,1.32,2.54,1.65a15.21,15.21,0,0,1,4.4,9.16c.09.79,1.34.8,1.25,0a16.49,16.49,0,0,0-5.73-10.93c-.85-.71-2.33-1.88-3.35-.76-.54.59.34,1.48.89.88Z" transform="translate(-65.53 -3.38)"/><path class="cls-2" d="M128.83,22.34l2.41,4a.63.63,0,0,0,.85.23.64.64,0,0,0,.23-.86l-2.41-4a.63.63,0,1,0-1.08.63Z" transform="translate(-65.53 -3.38)"/><path class="cls-2" d="M111.44,12.67a27.17,27.17,0,0,0,6,13.16c.52.62,1.4-.27.89-.88a26,26,0,0,1-5.72-12.61c-.12-.79-1.33-.46-1.2.33Z" transform="translate(-65.53 -3.38)"/><path class="cls-2" d="M117.55,15a7.43,7.43,0,0,0,1.51,3.21.62.62,0,0,0,.88,0,.64.64,0,0,0,0-.88s0,0,0,0l-.06-.08-.12-.17-.22-.33q-.19-.35-.36-.69a1.11,1.11,0,0,1-.07-.16c.06.15,0-.06,0-.09s-.1-.25-.14-.37a7.38,7.38,0,0,1-.19-.78.63.63,0,1,0-1.21.33Z" transform="translate(-65.53 -3.38)"/><ellipse class="cls-4" cx="59.62" cy="99.3" rx="3.53" ry="3.67"/><ellipse class="cls-5" cx="78.82" cy="107" rx="3.53" ry="3.68"/><ellipse class="cls-6" cx="84.29" cy="122.06" rx="3.53" ry="3.67"/><ellipse class="cls-6" cx="76.02" cy="136.76" rx="3.53" ry="3.67"/><ellipse class="cls-6" cx="58.92" cy="140.95" rx="3.53" ry="3.68"/><ellipse class="cls-7" cx="43.86" cy="110.4" rx="3.53" ry="3.67"/><ellipse class="cls-8" cx="43.93" cy="129.41" rx="3.53" ry="3.68"/></svg>