<svg id="圖層_1" data-name="圖層 1" xmlns="http://www.w3.org/2000/svg" viewBox="0 0 1283 643.57"><defs><style>.cls-1,.cls-12,.cls-16,.cls-7{fill:none;}.cls-1{stroke:#000;opacity:0.9;}.cls-1,.cls-11,.cls-12,.cls-13,.cls-14,.cls-15,.cls-16,.cls-17,.cls-2,.cls-27,.cls-28,.cls-29,.cls-3,.cls-4,.cls-6{stroke-miterlimit:10;}.cls-2,.cls-3{fill:#e1e5df;}.cls-10,.cls-2,.cls-3,.cls-4,.cls-7,.cls-8,.cls-9{stroke:#666;}.cls-10,.cls-2,.cls-7,.cls-8,.cls-9{stroke-linecap:round;}.cls-2{stroke-width:3px;}.cls-16,.cls-2,.cls-5{opacity:0.8;}.cls-4{fill:#b3b3b3;}.cls-6{fill:#fff;}.cls-11,.cls-12,.cls-13,.cls-14,.cls-15,.cls-16,.cls-6{stroke:#8b93a5;}.cls-10,.cls-7,.cls-8,.cls-9{stroke-linejoin:round;}.cls-11,.cls-17,.cls-8{fill:#fbb03b;}.cls-9{fill:#ed1c24;}.cls-10,.cls-15{fill:#8cc63f;}.cls-13{fill:#f2f2f2;}.cls-14{fill:#f15a24;}.cls-16,.cls-17{stroke-width:2px;}.cls-17{stroke:#fbb03b;}.cls-18{font-size:36px;fill:#4d4d4d;font-family:FuturaPT-Medium, Futura PT;font-weight:500;}.cls-19{letter-spacing:0.02em;}.cls-20{letter-spacing:-0.06em;}.cls-21{letter-spacing:0em;}.cls-22{letter-spacing:-0.03em;}.cls-23{letter-spacing:-0.01em;}.cls-24{letter-spacing:0em;}.cls-25{letter-spacing:-0.05em;}.cls-26{letter-spacing:-0.01em;}.cls-27{fill:#7f8b74;}.cls-27,.cls-28,.cls-29{stroke:#999;}.cls-28{fill:#b7c2b4;}.cls-29{fill:#a6a6a8;}</style></defs><line class="cls-1" x1="621.7" y1="642.77" x2="621.7" y2="643.57"/><rect class="cls-2" x="2.1" y="1.5" width="1279.4" height="4.51"/><path class="cls-3" d="M1150.44,36h45.88a6.61,6.61,0,0,1,6.61,6.61v5.57a.37.37,0,0,1-.37.37h-59a.37.37,0,0,1-.37-.37V43.27A7.23,7.23,0,0,1,1150.44,36Z" transform="translate(2347.19 71.15) rotate(180)"/><rect class="cls-3" x="1172.02" y="35.42" width="4.22" height="24.3"/><polygon class="cls-3" points="1190.47 64.08 1157.79 64.08 1159.67 59.72 1188.44 59.72 1190.47 64.08"/><polygon class="cls-3" points="1123.82 72.79 1226.01 72.79 1220.13 65.17 1130.17 65.17 1123.82 72.79"/><rect class="cls-3" x="1107.32" y="71.74" width="7.85" height="57.19" rx="2.01" transform="translate(436.81 -801.19) rotate(47.58)"/><rect class="cls-3" x="1234.59" y="71.74" width="7.85" height="57.19" rx="2.01" transform="translate(2149.06 -759.79) rotate(132.42)"/><rect class="cls-3" x="1094.38" y="115.33" width="7.85" height="23.14" rx="2.01" transform="translate(173.89 718.29) rotate(-39.76)"/><rect class="cls-3" x="1248.3" y="115.33" width="7.85" height="23.14" rx="2.01" transform="translate(2134.78 1011.83) rotate(-140.24)"/><circle class="cls-4" cx="1131.74" cy="69.38" r="3.41"/><circle class="cls-4" cx="1219.88" cy="68.87" r="3.41"/><circle class="cls-4" cx="1092.4" cy="105.06" r="3.41"/><circle class="cls-4" cx="1259.49" cy="105.06" r="3.41"/><g class="cls-5"><rect class="cls-6" x="1110.5" y="97.14" width="129.24" height="127.13"/><line class="cls-7" x1="1110.5" y1="105.94" x2="1239.74" y2="105.94"/><circle class="cls-8" cx="1116.52" cy="102.34" r="2.25"/><circle class="cls-9" cx="1124.81" cy="102.34" r="2.25"/><circle class="cls-10" cx="1133.8" cy="102.34" r="2.25"/><rect class="cls-11" x="1110.75" y="123.6" width="128.73" height="37.35"/><rect class="cls-6" x="1116.09" y="110.93" width="60.03" height="6" rx="3"/><rect class="cls-6" x="1120.09" y="127.61" width="25.35" height="25.35"/><line class="cls-12" x1="1136.1" y1="176.96" x2="1224.81" y2="176.96"/><line class="cls-12" x1="1136.43" y1="188.97" x2="1225.14" y2="188.97"/><line class="cls-12" x1="1136.43" y1="200.97" x2="1225.14" y2="200.97"/></g><g class="cls-5"><polygon class="cls-13" points="1016.08 423.27 1002.08 433.8 1002.08 272.31 1014.83 264.18 1016.08 423.27"/><polygon class="cls-6" points="1001.98 433.71 847.99 358.35 847.99 199.88 1001.98 272.31 1001.98 433.71"/><line class="cls-12" x1="847.99" y1="226.42" x2="1001.98" y2="296.87"/><ellipse class="cls-11" cx="855.16" cy="228.89" rx="3.79" ry="6.72" transform="translate(-19.85 88.18) rotate(-6.72)"/><ellipse class="cls-14" cx="866.39" cy="234.37" rx="3.79" ry="6.72" transform="translate(-20.41 89.53) rotate(-6.72)"/><ellipse class="cls-15" cx="878.56" cy="239.75" rx="3.79" ry="6.72" transform="translate(-20.96 90.99) rotate(-6.72)"/><polygon class="cls-13" points="1001.98 272.31 847.99 199.7 861.92 193.03 1014.74 264.18 1001.98 272.31"/><line class="cls-12" x1="1001.98" y1="296.87" x2="1014.93" y2="288.75"/></g><polygon class="cls-16" points="912.27 277.55 853.18 251.36 853.18 234.15 912.27 262.58 912.27 277.55"/><line class="cls-17" x1="870.61" y1="271.56" x2="963.78" y2="313.46"/><line class="cls-17" x1="890.79" y1="295.75" x2="983.97" y2="337.64"/><line class="cls-17" x1="865.8" y1="297.24" x2="958.97" y2="339.14"/><polygon class="cls-13" points="912.65 438.07 900.43 447.26 900.43 306.32 911.56 299.23 912.65 438.07"/><polygon class="cls-6" points="900.34 447.19 765.95 381.42 765.95 243.11 900.34 306.32 900.34 447.19"/><line class="cls-12" x1="765.95" y1="266.28" x2="900.34" y2="327.76"/><ellipse class="cls-11" cx="772.07" cy="270.14" rx="3.3" ry="5.86" transform="translate(-25.24 78.74) rotate(-6.72)"/><ellipse class="cls-14" cx="781.87" cy="274.93" rx="3.3" ry="5.86" transform="translate(-25.74 79.92) rotate(-6.72)"/><ellipse class="cls-15" cx="792.49" cy="279.62" rx="3.3" ry="5.86" transform="translate(-26.21 81.19) rotate(-6.72)"/><polygon class="cls-13" points="900.34 306.32 765.95 242.95 778.1 237.13 911.47 299.23 900.34 306.32"/><line class="cls-12" x1="900.34" y1="327.76" x2="911.64" y2="320.67"/><path class="cls-11" d="M846.76,335.4,778,304.12a13.89,13.89,0,0,1-5.25-3.67l-1.23-1.78c-1.54-2.24,2.24-2.32,7-.15L847.23,330a14.27,14.27,0,0,1,5,3.41l1.15,1.61C855.25,337.38,851.66,337.63,846.76,335.4Z" transform="translate(1.06 -13.47)"/><path class="cls-11" d="M868.58,358.6,799.8,327.32c-2.42-1.1-4.45-2.54-5.22-3.71l-1.21-1.82c-1.52-2.29,2.28-2.43,7-.26L869.13,353a13.75,13.75,0,0,1,5,3.44l1.13,1.65C877.1,360.51,873.48,360.82,868.58,358.6Z" transform="translate(1.06 -13.47)"/><polygon class="cls-3" points="817.94 463.47 711.75 411.5 711.75 302.22 817.94 352.17 817.94 463.47"/><line class="cls-12" x1="711.58" y1="316.97" x2="818.11" y2="367.8"/><polygon class="cls-13" points="831.94 456.45 817.94 463.47 817.94 352.25 830.64 346.3 831.94 456.45"/><polygon class="cls-13" points="817.21 351.91 711.98 301.7 724.13 294.79 830.64 346.3 817.21 351.91"/><polygon class="cls-11" points="776.13 385.37 809.04 399.87 809.04 370.28 776.13 354.61 776.13 385.37"/><rect class="cls-3" x="114.39" y="31.97" width="4.56" height="80.87"/><polygon class="cls-3" points="127.19 115.94 106.5 115.94 107.7 113.14 125.9 113.14 127.19 115.94"/><path class="cls-3" d="M101.53,39.08h29a4.22,4.22,0,0,1,4.22,4.22v3.61a.23.23,0,0,1-.23.23H97.16a.23.23,0,0,1-.23-.23V43.69A4.61,4.61,0,0,1,101.53,39.08Z" transform="translate(232.7 72.76) rotate(180)"/><polygon class="cls-3" points="83.96 122.62 148.62 122.62 144.9 117.72 87.98 117.72 83.96 122.62"/><path class="cls-3" d="M61.44,156.61l1.63,1.82a1.25,1.25,0,0,0,1.8.08l24.84-23a1.31,1.31,0,0,0,.08-1.83l-1.64-1.82a1.26,1.26,0,0,0-1.79-.08l-24.84,23A1.29,1.29,0,0,0,61.44,156.61Z" transform="translate(1.06 -13.47)"/><path class="cls-3" d="M170.32,156.61l-1.63,1.82a1.25,1.25,0,0,1-1.8.08l-24.84-23a1.31,1.31,0,0,1-.08-1.83l1.63-1.82a1.27,1.27,0,0,1,1.8-.08l24.84,23A1.3,1.3,0,0,1,170.32,156.61Z" transform="translate(1.06 -13.47)"/><path class="cls-3" d="M71.17,168.7,73,167.13a1.31,1.31,0,0,0,.17-1.82l-7.74-9.45a1.25,1.25,0,0,0-1.79-.16l-1.86,1.57a1.31,1.31,0,0,0-.17,1.82l7.74,9.44A1.25,1.25,0,0,0,71.17,168.7Z" transform="translate(1.06 -13.47)"/><path class="cls-3" d="M161.07,168.7l-1.87-1.57a1.31,1.31,0,0,1-.16-1.82l7.74-9.45a1.25,1.25,0,0,1,1.79-.16l1.86,1.57a1.31,1.31,0,0,1,.16,1.82l-7.73,9.44A1.25,1.25,0,0,1,161.07,168.7Z" transform="translate(1.06 -13.47)"/><ellipse class="cls-4" cx="88.97" cy="120.42" rx="2.16" ry="2.19"/><ellipse class="cls-4" cx="144.74" cy="120.09" rx="2.16" ry="2.19"/><ellipse class="cls-4" cx="169.81" cy="143.35" rx="2.16" ry="2.19"/><ellipse class="cls-4" cx="64.74" cy="142.92" rx="2.16" ry="2.19"/><text class="cls-18" transform="translate(86.98 230.64) scale(1.11 1)">Le<tspan class="cls-19" x="31.54" y="0">t</tspan><tspan class="cls-20" x="40.97" y="0">’</tspan><tspan class="cls-21" x="49.14" y="0">s </tspan><tspan x="0" y="43.2">O</tspan><tspan class="cls-22" x="28.44" y="43.2">r</tspan><tspan x="39.28" y="43.2">gani</tspan><tspan class="cls-23" x="102.89" y="43.2">z</tspan><tspan class="cls-24" x="119.81" y="43.2">e </tspan><tspan class="cls-25" x="145.55" y="43.2">Y</tspan><tspan x="163.19" y="43.2">our mess Bookmar</tspan><tspan class="cls-26" x="426.27" y="43.2">k</tspan><tspan class="cls-24" x="441.78" y="43.2">s!</tspan></text><rect class="cls-2" x="1.5" y="16.64" width="1279.4" height="4.51"/><path class="cls-27" d="M1169.89,19.24,1166.61,40c-4.21-1-7.1-6.94-6.15-11.79C1161.63,22.23,1166.12,19.09,1169.89,19.24Z" transform="translate(1.06 -13.47)"/><ellipse class="cls-28" cx="1175.06" cy="17.39" rx="11.6" ry="12.16"/><ellipse class="cls-29" cx="1175.06" cy="17.39" rx="8.89" ry="9.32"/><ellipse class="cls-28" cx="1175.06" cy="17.39" rx="5.8" ry="6.08"/><path class="cls-27" d="M112.44,22.41l-3.28,20.77c-4.21-1-7.11-6.93-6.16-11.78C104.18,25.4,108.66,22.26,112.44,22.41Z" transform="translate(1.06 -13.47)"/><ellipse class="cls-28" cx="117.61" cy="20.57" rx="11.6" ry="12.16"/><ellipse class="cls-29" cx="117.61" cy="20.57" rx="8.89" ry="9.32"/><ellipse class="cls-28" cx="117.61" cy="20.57" rx="5.8" ry="6.08"/><ellipse class="cls-11" cx="717.15" cy="326.35" rx="2.89" ry="5.13" transform="translate(-32.2 72.7) rotate(-6.72)"/><ellipse class="cls-14" cx="725.72" cy="330.54" rx="2.89" ry="5.13" transform="translate(-32.63 73.73) rotate(-6.72)"/><ellipse class="cls-15" cx="735.02" cy="334.65" rx="2.89" ry="5.13" transform="translate(-33.05 74.84) rotate(-6.72)"/></svg>