<svg id="圖層_1" data-name="圖層 1" xmlns="http://www.w3.org/2000/svg" viewBox="0 0 43.03 43"><defs><style>.cls-1{fill:#ffb03b;}.cls-2{fill:#f7931e;}.cls-3{font-size:16.03px;font-family:PinotGrigioModern-Medium, Pinot Grigio Modern;font-weight:500;}.cls-4{letter-spacing:-0.06em;}.cls-5{letter-spacing:-0.04em;}</style></defs><path class="cls-1" d="M.63.12H42.37a.51.51,0,0,1,.51.51V42.37a.51.51,0,0,1-.51.51H.63a.5.5,0,0,1-.5-.5V.63A.5.5,0,0,1,.63.12Z"/><path class="cls-2" d="M43.61,1.36a.38.38,0,0,1,.38.38V43.48a.38.38,0,0,1-.38.38H1.87a.38.38,0,0,1-.38-.38V1.74a.38.38,0,0,1,.38-.38H43.61m0-.25H1.87a.63.63,0,0,0-.63.63V43.48a.63.63,0,0,0,.63.63H43.61a.63.63,0,0,0,.63-.63V1.74a.63.63,0,0,0-.63-.63Z" transform="translate(-1.24 -1.11)"/><text class="cls-3" transform="translate(2.56 17.72) scale(0.88 1)"><tspan class="cls-4">S</tspan><tspan x="6.97" y="0">ticky </tspan><tspan x="5.77" y="19.23">N</tspan><tspan class="cls-5" x="16.88" y="19.23">o</tspan><tspan x="26.04" y="19.23">te</tspan></text></svg>