<svg id="圖層_1" data-name="圖層 1" xmlns="http://www.w3.org/2000/svg" viewBox="0 0 29.93 28.27"><defs><style>.cls-1{fill:#8b93a5;}.cls-2{fill:#558d8f;}.cls-3{fill:#fff;}</style></defs><path class="cls-1" d="M36.83,34.06l-2.46,2.63a.55.55,0,0,1-.74-.06l-9.45-8.56a.55.55,0,0,1-.13-.75l2.46-2.62a.53.53,0,0,1,.74.06l9.46,8.55A.54.54,0,0,1,36.83,34.06Z" transform="translate(-7 -8.54)"/><path class="cls-2" d="M18.7,31.2A11.26,11.26,0,0,1,8.15,24.1a10.89,10.89,0,0,1,.16-8.46,11.15,11.15,0,0,1,6.28-6A11.38,11.38,0,0,1,29.25,16a10.94,10.94,0,0,1-.15,8.46,11.16,11.16,0,0,1-6.29,6A11.35,11.35,0,0,1,18.7,31.2Z" transform="translate(-7 -8.54)"/><path class="cls-1" d="M18.7,9.29h0a10.87,10.87,0,0,1,10.2,6.86,10.53,10.53,0,0,1-.15,8.17,10.77,10.77,0,0,1-6.07,5.76,11.1,11.1,0,0,1-4,.74A10.87,10.87,0,0,1,8.5,24a10.53,10.53,0,0,1,.15-8.17A10.8,10.8,0,0,1,14.72,10a11.1,11.1,0,0,1,4-.74m0-.75a11.7,11.7,0,0,0-4.24.79A11.46,11.46,0,0,0,7.8,24.23,11.78,11.78,0,0,0,23,30.78a11.45,11.45,0,0,0,6.65-14.9A11.69,11.69,0,0,0,18.7,8.54Z" transform="translate(-7 -8.54)"/><path class="cls-3" d="M18.7,27.74a7.77,7.77,0,0,1-7.28-4.9A7.51,7.51,0,0,1,11.53,17a7.67,7.67,0,0,1,4.33-4.11,7.94,7.94,0,0,1,2.84-.53A7.76,7.76,0,0,1,26,17.27a7.51,7.51,0,0,1-.11,5.83,7.67,7.67,0,0,1-4.33,4.11A7.9,7.9,0,0,1,18.7,27.74Z" transform="translate(-7 -8.54)"/><path class="cls-1" d="M18.7,12.74h0a7.38,7.38,0,0,1,6.93,4.67,7.1,7.1,0,0,1-.1,5.54,7.52,7.52,0,0,1-6.83,4.42,7.38,7.38,0,0,1-6.93-4.67,7.15,7.15,0,0,1,.1-5.54A7.31,7.31,0,0,1,16,13.25a7.39,7.39,0,0,1,2.7-.51m0-.75a8.18,8.18,0,0,0-3,.56A8,8,0,0,0,11.07,23a8.22,8.22,0,0,0,10.6,4.58,8,8,0,0,0,4.66-10.43A8.18,8.18,0,0,0,18.7,12Z" transform="translate(-7 -8.54)"/></svg>