<svg id="圖層_1" data-name="圖層 1" xmlns="http://www.w3.org/2000/svg" viewBox="0 0 30.93 28.81"><defs><style>.cls-1{fill:#d6cfb1;}.cls-2{fill:#367773;}.cls-3{fill:#fff;}</style></defs><path class="cls-1" d="M36.83,34.06l-2.46,2.63a.55.55,0,0,1-.74-.06l-9.45-8.56a.55.55,0,0,1-.13-.75l2.46-2.62a.53.53,0,0,1,.74.06l9.46,8.55A.54.54,0,0,1,36.83,34.06Z" transform="translate(-6 -8)"/><path class="cls-2" d="M18,30.57A10.9,10.9,0,0,1,7.75,23.69a10.55,10.55,0,0,1,.15-8.18A10.76,10.76,0,0,1,14,9.74,11.1,11.1,0,0,1,18,9,10.9,10.9,0,0,1,28.2,15.87a10.53,10.53,0,0,1-.15,8.19A10.83,10.83,0,0,1,22,29.83,11.1,11.1,0,0,1,18,30.57Z" transform="translate(-6 -8)"/><path class="cls-1" d="M18,10h0a9.91,9.91,0,0,1,9.3,6.24,9.53,9.53,0,0,1-.13,7.41,9.84,9.84,0,0,1-5.53,5.25,10.28,10.28,0,0,1-3.63.67,9.9,9.9,0,0,1-9.3-6.25,9.57,9.57,0,0,1,.14-7.41,9.79,9.79,0,0,1,5.53-5.24A10,10,0,0,1,18,10m0-2a12.28,12.28,0,0,0-4.34.8A11.73,11.73,0,0,0,6.82,24.06a12,12,0,0,0,15.5,6.7,11.72,11.72,0,0,0,6.81-15.25A12,12,0,0,0,18,8Z" transform="translate(-6 -8)"/><path class="cls-3" d="M18.36,26a6.3,6.3,0,0,1-5.91-4,6.11,6.11,0,0,1,.08-4.73A6.31,6.31,0,0,1,16.05,14a6.55,6.55,0,0,1,2.31-.42,6.32,6.32,0,0,1,5.92,4,6.07,6.07,0,0,1-.09,4.73,6.24,6.24,0,0,1-3.52,3.34A6.31,6.31,0,0,1,18.36,26Z" transform="translate(-6 -8)"/><path class="cls-1" d="M18.36,14.53h0a5.38,5.38,0,0,1,5,3.34,5.09,5.09,0,0,1-.08,4,5.24,5.24,0,0,1-3,2.81,5.39,5.39,0,0,1-6.93-3,5.09,5.09,0,0,1,.07-4,5.26,5.26,0,0,1,3-2.8,5.47,5.47,0,0,1,1.95-.36m0-2A7.28,7.28,0,0,0,15.7,13a7.19,7.19,0,0,0-4.18,9.37A7.34,7.34,0,0,0,18.36,27,7.59,7.59,0,0,0,21,26.51a7.21,7.21,0,0,0,4.18-9.37,7.35,7.35,0,0,0-6.85-4.61Z" transform="translate(-6 -8)"/></svg>