<svg id="圖層_1" data-name="圖層 1" xmlns="http://www.w3.org/2000/svg" viewBox="0 0 42.52 52.63"><defs><style>.cls-1{fill:#fbb03b;}.cls-2{fill:#f7931e;}.cls-3{font-size:16.54px;font-family:FuturaPT-Medium, Futura PT;font-weight:500;}</style></defs><path class="cls-1" d="M1.78,44.12a.43.43,0,0,1-.43-.43V2.27a.42.42,0,0,1,.43-.42H43.2a.43.43,0,0,1,.3.13.38.38,0,0,1,.12.31L41.91,41.51a.42.42,0,0,1-.4.41Z" transform="translate(-1.23 8.39)"/><path class="cls-2" d="M43.2,2a.28.28,0,0,1,.21.1.31.31,0,0,1,.09.22L41.78,41.51a.29.29,0,0,1-.28.28L1.78,44a.29.29,0,0,1-.3-.3V2.27a.3.3,0,0,1,.3-.3H43.2m0-.25H1.78a.55.55,0,0,0-.55.55V43.69a.55.55,0,0,0,.55.55h0L41.51,42a.54.54,0,0,0,.52-.52L43.75,2.3a.56.56,0,0,0-.55-.58Z" transform="translate(-1.23 8.39)"/><text x="-1.23" y="8.39"/><text class="cls-3" transform="translate(3.46 26.17) scale(0.88 1)">Sticky <tspan x="4.61" y="19.85">Note</tspan></text></svg>