<svg id="圖層_1" data-name="圖層 1" xmlns="http://www.w3.org/2000/svg" viewBox="0 0 42.5 52.62"><defs><style>.cls-1{fill:#fbb03b;}.cls-2{fill:#f7931e;}.cls-3{font-size:10px;font-family:FuturaPT-Medium, Futura PT;font-weight:500;}</style></defs><path class="cls-1" d="M1.79,44.1a.42.42,0,0,1-.42-.42V2.29a.42.42,0,0,1,.42-.42h41.4a.39.39,0,0,1,.3.13.43.43,0,0,1,.12.31L41.9,41.5a.42.42,0,0,1-.4.4Z" transform="translate(-1.24 8.39)"/><path class="cls-2" d="M43.19,2a.29.29,0,0,1,.21.09.31.31,0,0,1,.09.22L41.77,41.49a.3.3,0,0,1-.28.29L1.79,44a.3.3,0,0,1-.3-.3V2.29a.29.29,0,0,1,.3-.3h41.4m0-.25H1.79a.55.55,0,0,0-.55.55V43.68a.55.55,0,0,0,.55.55h0L41.5,42A.55.55,0,0,0,42,41.5L43.73,2.31a.54.54,0,0,0-.54-.57Z" transform="translate(-1.24 8.39)"/><text x="-1.24" y="8.39"/><text class="cls-3" transform="translate(1.76 34.06) scale(0.81 1)">Sticky Note</text></svg>