<svg id="圖層_1" data-name="圖層 1" xmlns="http://www.w3.org/2000/svg" viewBox="0 0 29 37"><defs><style>.cls-1{opacity:0.8;}.cls-2{fill:#558d8f;}.cls-3{fill:#8b93a5;}.cls-4{fill:#e6e6e6;}.cls-5{fill:#ccc;}</style></defs><g class="cls-1"><path class="cls-2" d="M13.61,40.88a.57.57,0,0,1-.56-.5L9.21,7.75a.59.59,0,0,1,.14-.44.57.57,0,0,1,.42-.19H37.21a.56.56,0,0,1,.42.2.51.51,0,0,1,.13.44L33,40.4a.56.56,0,0,1-.55.48Z" transform="translate(-9 -4)"/><path class="cls-3" d="M37.21,7.25a.41.41,0,0,1,.33.15.42.42,0,0,1,.1.34l-4.8,32.64a.44.44,0,0,1-.43.37H13.61a.42.42,0,0,1-.43-.38L9.34,7.73a.43.43,0,0,1,.1-.34.45.45,0,0,1,.33-.14H37.21m0-.25H9.77a.68.68,0,0,0-.68.76L12.93,40.4a.68.68,0,0,0,.68.6h18.8a.69.69,0,0,0,.68-.58l4.8-32.64A.68.68,0,0,0,37.21,7Z" transform="translate(-9 -4)"/></g><ellipse class="cls-4" cx="14.5" cy="4" rx="14.38" ry="3.87"/><path class="cls-3" d="M23.5,4.25C32,4.25,37.75,6.19,37.75,8S32,11.75,23.5,11.75,9.25,9.81,9.25,8,15,4.25,23.5,4.25m0-.25C15.49,4,9,5.79,9,8s6.49,4,14.5,4S38,10.21,38,8,31.51,4,23.5,4Z" transform="translate(-9 -4)"/><g class="cls-1"><path class="cls-2" d="M29,39.45H14.5A.53.53,0,0,1,14,39L11,13.75a.54.54,0,0,1,.53-.59H32.75a.53.53,0,0,1,.52.6L29.56,39A.53.53,0,0,1,29,39.45Z" transform="translate(-9 -4)"/></g><ellipse class="cls-5" cx="14.5" cy="4" rx="11.5" ry="3"/></svg>