<svg id="圖層_1" data-name="圖層 1" xmlns="http://www.w3.org/2000/svg" viewBox="0 0 33 35.5"><defs><style>.cls-1{fill:none;stroke-width:2px;}.cls-1,.cls-2{stroke:#5d998f;}.cls-1,.cls-2,.cls-3{stroke-miterlimit:10;}.cls-2{fill:#5d998f;}.cls-3{fill:#558d8f;stroke:#4d4d4d;stroke-width:0.25px;}</style></defs><rect class="cls-1" x="11" y="1" width="11" height="4" rx="0.94"/><path class="cls-2" d="M8.83,14.87l2.5,23.31a2,2,0,0,0,2,1.82H31.9a2,2,0,0,0,2-1.82l2.5-23.31a.79.79,0,0,0-.78-.87h-26A.79.79,0,0,0,8.83,14.87Z" transform="translate(-6 -5)"/><rect class="cls-3" x="4.17" y="26.77" width="22.09" height="1.5" rx="0.75" transform="translate(35.17 4.76) rotate(84.53)"/><rect class="cls-3" x="11.55" y="26.25" width="23" height="1.5" rx="0.75" transform="translate(44.05 -1.05) rotate(90)"/><rect class="cls-3" x="19" y="26.76" width="22.19" height="1.5" rx="0.74" transform="translate(54.35 -4.83) rotate(95.47)"/><rect class="cls-2" x="0.5" y="4.5" width="32" height="2" rx="0.96"/></svg>